<svg version="1.1" xmlns="http://www.w3.org/2000/svg" xmlns:xlink="http://www.w3.org/1999/xlink" width="113.45164" height="134.58224" viewBox="0,0,113.45164,134.58224"><g transform="translate(-183.41925,-113.23081)"><g data-paper-data="{&quot;isPaintingLayer&quot;:true}" stroke="none" stroke-linecap="butt" stroke-linejoin="miter" stroke-miterlimit="10" stroke-dasharray="" stroke-dashoffset="0" style="mix-blend-mode: normal"><g fill-rule="evenodd" stroke-width="1"><path d="M246.825,188.60001c-0.3,-0.075 -12.675,0.825 -12.675,0.825l-11.1,4.125l-6.45,3.675l-3.225,4.275l-2.625,3.45l-5.85,-1.725l-8.025,-4.95l-6.75,-6.675l-3.75,-6.675l-1.65,-7.95l0.6,-6.825l2.325,-7.05l3.6,-6.075l6.075,-5.4l8.1,-4.275l7.8,-1.65l7.8,-1.2l12.3,-0.225l9,1.575l7.95,2.775l8.475,5.775l5.936,7.8l2.861,7.125v6.3l-2.272,9.225l-3.45,4.35c0,0 -14.7,-0.525 -15,-0.6z" fill="#ffffff"/><path d="M246.8,189.80001l10.4,7.7l8.877,2.6l4.423,1.2l6.7,0.9l4,-1.5l4.8,-2.6l2.8,-2.7l2.7,-0.8l2.7,1.2l1.1,3.4l-3.6,5.248l-6.6,4.452l-5.9,3.2l1.8,20.1l-1.4,8.3l-2.7,3.5l-5.5,0.1l-3.4,-1.1l-2.4,-3.8l-2.4,5l-4.5,1.9l-4.3,-0.4l-3.4,-1.3c0,0 -1.5,-5.1 -1.6,-5.4c-0.099,-0.3 -0.7,-7.8 -0.7,-7.8l0.6,-5.6h-5l-8.2,-0.7l1.7,7.5l-2.4,9.6l-3.6,2.7l-4.9,0.4l-2.2,-2l-4.3,2.6l-5.6,-0.4l-4.4,-3.6l-1.6,-4.9l-0.3,-6.8l-0.1,-9.5l1.4,-8.7l1.925,-7.9l1.35,-3.225l-5.775,-3.825l-2.85,-4.5l-1.275,-6.6l-1.05,-2.175l-4.65,3l-2.85,-1.95l-0.975,-8.925v-11.4l16.125,-0.075l2.925,0.825l2.325,-1.425c0,0 10.35,-0.75 10.575,-0.825c0.225,-0.075 9.45,1.275 9.675,1.275c0.225,0 5.625,1.425 5.625,1.425c0,0 14.25,-1.8 14.475,-1.8c0.225,0 3.975,0.9 3.975,0.9v15.45l-1.275,3.6c0,0 -4.875,-0.375 -5.1,-0.6c-0.225,-0.225 -4.35,-4.5 -4.35,-4.5l-2.1,9z" fill="#fcb322"/><path d="M266.8,194.30001v2.9l-2.193,4.8l-5.107,1.6l-5.8,0.848h-6.8l-3.6,0.502l-1.2,4.45l-0.7,4.4l1.2,4.366l1.1,4.334l2,2.9l-7.7,-0.3l-1.8,-1.9l-2.1,-5.6c0,0 -0.5,-3.8 -0.5,-4.1c0,-0.3 0.9,-5.8 0.9,-5.8l1.2,-3.252l-3.5,-1.048l-4.8,-2.1l-1.8,-4.3l0.536,-2.5l1.264,-2.7l3.7,-1.8l14.1,-1.2c0,0 12.1,0.6 12.5,0.5c0.4,-0.1 5.8,1.9 5.8,1.9z" fill="#71cbd2"/><path d="M234.525,115.70001l2.7,3.3v4.8c0,0 -2.25,4.2 -2.475,4.275c-0.225,0.075 -5.025,1.875 -5.025,1.875l-4.875,-0.375l-2.625,-2.55l-1.2,-3.9l0.9,-3.825l3.15,-3.675l6.675,-0.975z" fill="#ef463c"/></g><g><path d="M265.78,242.22601c-0.608,2.127 -2.187,3.259 -3.888,4.47c-1.977,1.41 -4.015,1.09 -6.106,1.077c-0.458,-0.002 -0.918,-0.186 -1.374,-0.175c-2.18,0.051 -3.941,-1.082 -4.674,-2.843c-0.962,-2.313 -1.922,-4.668 -2.193,-7.304c-0.329,-3.214 -0.497,-6.374 -0.169,-9.58c0.03,-0.294 -0.449,-0.905 -0.718,-0.921c-2.051,-0.124 -4.109,-0.123 -6.163,-0.19c-0.744,-0.025 -1.486,-0.13 -2.373,-0.212c0.077,0.007 0.373,2.62 0.408,2.874c0.328,2.38 0.178,4.81 -0.251,7.167c-0.407,2.24 -0.939,4.377 -2.299,6.227c-0.7,0.952 -1.256,1.876 -2.231,2.594c-2.07,1.523 -5.07,1.417 -7.452,0.797c-0.915,-0.237 -1.258,-0.695 -1.716,-1.483c-1.347,0.875 -2.801,1.582 -4.38,1.98c-0.882,0.221 -1.773,0.188 -2.686,0.188c-2.089,0 -3.834,-0.462 -5.451,-1.815c-1.41,-1.179 -2.482,-2.725 -3.265,-4.378c-0.553,-1.171 -0.973,-2.403 -1.29,-3.657c-0.369,-1.462 -0.316,-2.962 -0.333,-4.461c-0.013,-1.104 0.001,-2.208 0.001,-3.312c0,-3.609 0.094,-7.219 0.388,-10.815c0.077,-0.945 0.121,-1.875 0.354,-2.781c0.246,-0.957 0.186,-1.969 0.42,-2.934c0.252,-1.038 0.391,-2.086 0.593,-3.138c0.146,-0.762 0.283,-1.537 0.547,-2.271c0.076,-0.212 0.474,-0.807 0.364,-1.001c-0.113,-0.197 -0.831,-0.254 -1.039,-0.298c-0.361,-0.077 -0.75,-0.122 -1.113,-0.212c-0.859,-0.21 -1.77,-0.72 -2.585,-1.078c-0.966,-0.425 -1.918,-0.888 -2.809,-1.456c-2.336,-1.484 -4.666,-2.996 -6.869,-4.668c-2.904,-2.205 -5.146,-5.044 -7.143,-8.079c-0.25,-0.379 -0.702,-0.63 -0.933,-1.016c-1.81,-3.023 -3.187,-6.207 -3.669,-9.742c-0.426,-3.133 -0.358,-6.88 0.366,-9.969c0.436,-1.861 0.738,-3.785 1.427,-5.565c0.683,-1.762 1.438,-3.488 2.346,-5.147c0.838,-1.53 1.648,-2.642 2.909,-3.908c2.503,-2.512 5.422,-4.603 8.586,-6.202c3.97,-2.007 8.22,-3.406 12.551,-4.392c2.135,-0.487 4.29,-0.875 6.455,-1.194c1.977,-0.293 3.948,-0.205 5.916,-0.442c0.916,-0.11 1.906,-0.245 2.848,-0.332c0.095,-2.162 0.421,-4.26 0.4,-6.444c-0.011,-1.088 -0.11,-2.174 -0.114,-3.261c-0.005,-1.311 -0.797,-2.283 -2.404,-2.727c-2.613,-0.723 -5.466,-4.201 -5.576,-7.414c-0.08,-2.352 1.079,-3.772 2.191,-5.428c1.79,-2.664 4.63,-3.818 7.477,-4.077c3.11,-0.282 6.255,0.677 8.244,3.491c1.135,1.605 1.368,3.532 1.047,5.484c-0.211,1.289 -0.341,2.611 -0.73,3.848c-0.635,2.023 -2.139,3.409 -3.973,4.331c-1.089,0.547 -2.35,0.752 -3.74,1.174c0,3.487 0,7.241 0,11.067c4.161,-0.187 8.113,0.241 11.949,1.322c2.415,0.681 4.742,1.694 7.072,2.646c1.896,0.776 3.828,1.533 5.578,2.576c1.584,0.945 3.081,2.129 4.37,3.449c2.004,2.052 4.19,4.084 5.594,6.529c2.383,4.15 4.831,8.457 4.741,13.462c-0.048,2.661 -0.671,5.321 -1.144,7.962c-0.542,3.024 -2.117,5.612 -3.732,8.163c-0.165,0.26 -0.52,0.399 -0.886,0.667c1.768,0.941 3.488,1.789 4.4,3.703c0.926,1.945 -0.021,3.792 0,5.732c2.412,0.664 4.806,1.537 7.277,1.942c2.505,0.412 4.995,-0.29 7.117,-1.642c2.05,-1.307 3.826,-3.037 5.828,-4.43c0.75,-0.521 1.783,-0.679 2.713,-0.881c0.614,-0.135 1.274,-0.049 1.913,-0.063c2.634,-0.06 4.357,1.859 4.156,4.486c-0.217,2.817 -1.873,4.835 -3.695,6.704c-2.697,2.765 -6.019,4.661 -9.488,6.293c-0.753,0.355 -1.581,0.551 -2.592,0.893c0.213,2.272 0.388,4.585 0.652,6.887c0.635,5.555 1.281,11.116 0.377,16.691c-0.336,2.079 -0.872,4.15 -1.554,6.144c-0.897,2.621 -4.424,4.514 -7.397,4.425c-3.133,-0.095 -5.148,-1.996 -7.378,-4.107zM247.913,187.43901c0.233,0.025 0.525,0.069 0.819,0.084c3.33,0.17 6.72,0.011 9.97,0.61c2.332,0.431 3.292,-0.908 4.168,-2.215c1.769,-2.638 2.588,-5.701 3.208,-8.819c0.759,-3.823 0.304,-7.476 -1.113,-11.06c-0.449,-1.135 -0.637,-2.422 -1.284,-3.42c-1.28,-1.975 -2.662,-3.92 -4.25,-5.65c-1.658,-1.807 -3.519,-3.458 -5.449,-4.979c-3.58,-2.82 -7.972,-4.038 -12.197,-5.319c-4.79,-1.451 -9.83,-1.857 -14.886,-1.392c-2.611,0.241 -5.245,0.263 -7.849,0.558c-4.344,0.493 -8.967,1.005 -13.018,2.724c-1.611,0.683 -3.114,1.42 -4.701,2.175c-1.748,0.833 -3.539,1.673 -5.1,2.83c-0.66,0.489 -1.214,1.094 -1.802,1.663c-1.095,1.062 -1.894,2.307 -2.859,3.471c-1.112,1.34 -2.085,2.802 -2.811,4.388c-1.535,3.359 -2.659,6.686 -3.006,10.452c-0.605,6.568 1.84,13.895 7.12,19.222c2.413,2.436 4.777,4.846 7.748,6.668c3.138,1.924 6.22,3.821 9.939,4.139c0.494,-0.69 0.971,-1.355 1.566,-2.184c-3.597,-2.002 -6.747,-4.595 -8.278,-8.499c-0.533,-1.36 -0.926,-2.75 -1.379,-4.138c-0.354,-1.083 -0.716,-2.049 -0.745,-3.185c-0.377,0.209 -0.579,0.618 -0.921,0.875c-0.369,0.277 -0.789,0.483 -1.224,0.633c-0.831,0.288 -1.749,0.387 -2.621,0.264c-1.684,-0.237 -2.829,-1.525 -3.518,-2.999c-0.713,-1.524 -1.064,-3.281 -1.255,-4.969c-0.218,-1.935 -0.076,-3.911 -0.091,-5.869c-0.01,-1.319 -0.097,-2.636 -0.141,-3.953c-0.066,-1.927 -0.55,-4.712 1.187,-6.112c0.362,-0.291 0.884,-0.559 1.322,-0.718c1.638,-0.595 3.722,0.125 5.411,0.186c1.866,0.068 3.748,-0.239 5.611,-0.148c0.908,0.043 1.8,0.076 2.693,0.163c0.992,0.096 1.977,-0.085 2.973,0.101c0.501,0.094 1.437,0.414 1.73,0.819c0.394,-0.329 0.868,-0.587 1.313,-0.866c0.55,-0.345 1.336,-0.417 1.962,-0.558c0.666,-0.151 1.334,-0.355 2.016,-0.429c3.819,-0.411 7.664,-1.045 11.52,-0.304c1.848,0.354 3.704,0.676 5.542,1.08c1.284,0.283 2.467,0.825 3.737,1.221c0.363,0.112 0.826,0.25 1.203,0.262c0.462,0.015 0.164,0.045 0.515,-0.174c0.706,-0.439 1.189,-0.697 2.129,-0.791c0.571,-0.058 1.095,-0.157 1.681,-0.157c0.881,0 1.636,-0.05 2.493,-0.142c0.997,-0.107 2.002,-0.249 3.005,-0.267c1.795,-0.033 3.54,-0.185 5.342,-0.189c0.999,-0.002 2.112,0.023 2.976,0.443c1.835,0.894 2.153,2.879 2.335,4.598c0.315,2.969 0.332,5.981 0.297,8.972c-0.02,1.811 -0.199,3.661 -0.631,5.414c-0.33,1.339 -0.841,2.869 -2.661,3.015c-0.639,0.052 -1.29,-0.042 -1.936,-0.079c-2.216,-0.124 -4.03,-0.968 -5.243,-2.912c-0.251,-0.404 -0.577,-0.76 -0.987,-1.289c-0.553,2.377 -1.05,4.498 -1.575,6.755zM278.506,213.29801c-2.356,0 -4.313,0.076 -6.262,-0.024c-1.126,-0.058 -2.513,0.05 -3.55,-0.48c-0.746,-0.382 -1.941,-1.382 -1.542,-2.311c0.327,-0.764 1.848,-0.467 2.449,-0.299c3.545,0.989 7.09,0.683 10.538,-0.298c1.866,-0.532 3.615,-1.541 5.35,-2.46c3.461,-1.835 6.526,-4.148 8.512,-7.64c0.528,-0.927 0.726,-1.846 0.166,-2.887c-0.437,-0.815 -0.978,-1.556 -1.894,-1.396c-0.966,0.168 -1.962,0.568 -2.777,1.118c-2.08,1.409 -3.979,3.102 -6.117,4.407c-2.182,1.332 -4.473,2.483 -7.222,2.376c-1.487,-0.057 -3.146,-0.076 -4.547,-0.628c-1.08,-0.426 -2.196,-0.486 -3.273,-0.888c-0.343,-0.128 -0.898,-0.733 -1.173,-0.777c-0.601,-0.095 -0.724,0.533 -1.11,0.928c-2.823,2.897 -7.425,2.625 -11.143,3.047c-1.421,0.162 -2.831,0.453 -4.256,0.54c-1.752,0.106 -3.526,-0.045 -5.266,0.135c-0.66,0.069 -1.488,0.613 -1.825,1.185c-0.475,0.806 -0.678,1.823 -0.799,2.776c-0.352,2.762 -0.418,5.618 0.357,8.318c0.563,1.96 2.098,6.382 4.593,6.566c0.637,0.047 1.196,-0.35 1.804,0.032c0.507,0.32 0.653,0.946 0.676,1.505c0.078,1.816 -0.676,3.598 -0.563,5.448c0.224,3.63 0.333,7.262 2.02,10.567c0.508,0.995 1.343,2.059 2.305,2.537c1.733,0.861 3.744,0.718 5.587,0.267c2.378,-0.583 3.435,-2.554 4.119,-4.71c0.859,-2.706 0.089,-5.465 0.059,-8.187c-0.026,-2.264 -0.569,-4.503 -0.266,-6.822c0.102,-0.781 0.301,-1.541 1.17,-1.697c0.791,-0.142 1.824,0.062 2.078,0.899c0.47,1.544 0.087,3.367 0.225,4.96c0.093,1.065 0.098,2.106 0.151,3.17c0.096,1.897 0.563,3.75 0.662,5.646c0.133,2.505 2.144,4.251 4.48,4.921c1.578,0.453 3.596,0.525 4.695,-0.887c1.215,-1.562 2.111,-3.65 2.389,-5.612c0.574,-4.059 1.001,-8.16 0.352,-12.31c-0.568,-3.615 -0.775,-7.287 -1.152,-11.035zM243.013,187.83001c0.829,0.106 1.722,0.232 2.229,-0.554c0.24,-0.373 0.31,-0.87 0.438,-1.288c0.219,-0.717 0.514,-1.415 0.663,-2.153c0.315,-1.548 0.575,-3.123 0.575,-4.708c0,-0.696 0.027,-1.469 -0.302,-2.082c-0.324,-0.606 -0.887,-1.044 -1.245,-1.626c-0.572,-0.931 -1.093,-1.893 -1.645,-2.834c-1.041,-1.775 -1.669,-4.223 -3.545,-5.328c-1.061,-0.625 -1.94,-1.338 -3.14,-1.687c-1.707,-0.495 -3.416,-0.879 -5.146,-1.272c-1.973,-0.449 -3.941,-0.621 -5.96,-0.62c-1.687,0 -3.358,0.135 -5.043,0.194c-1.078,0.037 -2.102,0.126 -3.175,0.237c-1.578,0.165 -3.545,0.706 -4.327,2.26c-0.767,1.524 -1.348,3.135 -2.2,4.619c-1.399,2.434 -2.955,4.778 -4.41,7.181c-0.937,1.547 -2.436,3.392 -2.49,5.243c-0.095,3.22 -0.039,5.838 1.466,8.786c1.104,2.163 2.787,5.049 5.025,6.199c0.558,0.288 1.2,0.547 1.815,0.681c0.937,0.206 1.447,0.203 2.072,-0.571c0.618,-0.766 1.57,-1.345 2.422,-1.815c1.158,-0.639 2.221,-1.346 3.522,-1.695c1.206,-0.323 2.367,-0.867 3.616,-1.006c0.689,-0.077 0.727,0.008 0.974,-0.636c0.28,-0.732 0.567,-1.279 1.21,-1.807c2.094,-1.721 5.033,-2.983 7.745,-3.248c1.603,-0.157 3.19,-0.256 4.802,-0.322c1.112,-0.046 2.23,-0.228 3.342,-0.213c0.224,0.003 0.466,0.033 0.712,0.065zM235.426,224.01301c0.046,-0.122 0.091,-0.244 0.138,-0.366c-3.982,-6.087 -3.134,-12.477 -1.1,-18.771c0.048,-0.149 -2.74,-0.948 -3.001,-1.032c-0.454,-0.144 -0.903,-0.255 -1.353,-0.374c-0.449,-0.117 -0.781,-0.41 -1.206,-0.588c-0.804,-0.337 -1.658,-0.803 -2.355,-1.392c-0.65,-0.547 -1.421,-1.321 -1.854,-2.049c-0.805,-1.354 -0.241,-3.474 -2.302,-2.976c-2.491,0.602 -4.852,1.808 -6.527,3.773c-0.588,0.69 -1.021,1.488 -1.588,2.186c-2.167,2.667 -3.155,5.972 -3.694,9.315c-0.269,1.673 -0.441,3.361 -0.643,5.042c-0.099,0.825 -0.341,1.721 -0.338,2.549c0.004,0.839 0.083,1.68 0.056,2.534c-0.07,2.137 -0.207,4.271 -0.212,6.409c-0.003,1.793 -0.057,3.651 0.097,5.423c0.139,1.591 0.195,3.288 0.804,4.717c1.3,3.052 3.713,5.137 6.802,6.372c1.216,0.486 3.426,-0.261 4.44,-0.962c0.591,-0.409 1.06,-1.381 1.419,-2.003c0.476,-0.824 0.74,-1.742 0.828,-2.687c0.081,-0.882 0.152,-1.749 0.152,-2.641c0,-0.713 -0.022,-1.415 0.076,-2.12c0.193,-1.396 0.095,-2.813 0.112,-4.232c0.02,-1.62 0.041,-3.24 0.041,-4.86c0,-0.682 -0.143,-1.365 -0.239,-2.209c-0.351,-0.16 -0.906,-0.308 -1.327,-0.63c-0.556,-0.427 -1.226,-0.933 -0.756,-1.793c0.42,-0.77 1.092,-0.711 1.752,-0.332c0.768,0.441 1.456,1.13 2.276,1.354c3.147,0.859 6.332,1.574 9.502,2.343zM255.699,203.00101c-2.048,-1.825 -1.904,-4.131 -1.985,-6.389c-0.089,-2.49 1.332,-4.311 2.837,-6.235c-2.581,-0.209 -4.96,-0.581 -7.33,-0.535c-1.818,0.036 -3.62,0.305 -5.473,0.245c-2.461,-0.081 -4.928,-0.051 -7.38,0.168c-2.157,0.195 -4.187,0.197 -6.126,1.333c-0.75,0.439 -1.536,0.745 -2.139,1.362c-0.597,0.611 -1.31,1.423 -1.628,2.231c-0.285,0.724 -0.163,1.598 -0.163,2.364c0,0.991 0.234,1.414 0.917,2.157c0.557,0.603 1.195,1.067 1.948,1.384c0.695,0.291 1.233,0.857 1.935,1.163c0.669,0.292 1.411,0.332 2.079,0.592c0.767,0.299 1.537,0.478 2.363,0.574c2.746,0.322 5.507,0.153 8.245,0.153c3.246,0 6.493,-0.146 9.74,-0.249c0.688,-0.023 1.371,-0.197 2.16,-0.318zM194.682,165.03301c-0.104,1.041 -0.268,1.964 -0.269,2.887c-0.003,1.382 0.304,2.788 0.13,4.14c-0.385,3.006 0.213,5.948 0.366,8.915c0.047,0.917 0.541,1.842 0.956,2.704c0.51,1.057 2.478,1.634 3.303,0.861c1.23,-1.152 2.449,-2.397 3.333,-3.814c1.1,-1.765 1.735,-3.815 2.786,-5.616c1.732,-2.967 3.636,-5.835 5.5,-8.799c-0.558,-0.369 -0.827,-0.701 -1.111,-0.713c-4.963,-0.211 -9.927,-0.382 -14.994,-0.565zM242.704,166.16501c0.367,0.817 0.543,1.339 0.82,1.801c1.269,2.126 2.429,4.336 3.89,6.325c1.889,2.571 3.961,5.017 6.082,7.405c1.347,1.514 3.582,0.795 4.131,-1.126c0.68,-2.382 0.846,-4.803 0.817,-7.256c-0.019,-1.56 0.02,-3.123 -0.052,-4.68c-0.032,-0.674 -0.246,-1.347 -0.438,-2.004c-0.387,-1.326 -1.096,-1.731 -3.385,-1.63c-2.543,0.112 -5.083,0.351 -7.619,0.587c-1.338,0.125 -2.666,0.359 -4.246,0.578zM226.891,224.29601c-0.108,-0.022 -0.216,-0.045 -0.324,-0.067c0.025,2.884 0.339,5.68 0.301,8.563c-0.04,3.087 -0.219,6.194 -0.946,9.206c-0.214,0.885 0.175,1.332 0.996,1.6c3.286,1.073 6.88,-0.726 7.902,-4.025c1.314,-4.244 1.359,-8.536 0.32,-12.838c-0.077,-0.322 -0.418,-0.759 -0.707,-0.822c-2.518,-0.558 -5.03,-1.098 -7.542,-1.617zM222.01,123.29401c-0.313,1.57 0.694,2.85 1.863,3.727c2.061,1.547 4.644,1.436 7.099,1.589c0.239,0.014 0.5,-0.078 0.727,-0.177c2.659,-1.165 4.656,-5.227 4.018,-8.151c-0.579,-2.652 -3.502,-4.66 -6.191,-4.116c-1.132,0.229 -2.193,0.796 -3.297,1.18c-2.563,0.89 -4.158,3.063 -4.219,5.948zM265.65299,196.23201c0.175,-2.074 -1.083,-4.369 -3.205,-4.564c-2.207,-0.203 -4.357,0.108 -5.732,1.971c-1.111,1.503 -1.459,3.249 -0.946,5.057c0.627,2.212 3.345,4.09 5.167,3.571c2.884,-0.822 4.449,-2.863 4.716,-6.035zM237.038,205.36101c-0.062,0 -0.109,0.003 -0.138,0.01c-1.132,0.289 -1.237,2.305 -1.437,3.247c-0.138,0.657 -0.234,1.102 -0.333,1.746c-0.162,1.064 0.48,0.765 1.314,0.777c0.305,0.005 3.762,0.438 3.772,0.38c0.342,-2 0.656,-3.836 0.982,-5.739c-0.031,0.181 -3.36,-0.416 -4.16,-0.421zM240.249,213.46001c-0.793,-0.509 -2.613,-0.223 -3.403,-0.297c-0.411,-0.039 -1.108,-0.106 -1.5,0c-0.608,0.163 -0.479,0.148 -0.526,0.816c-0.069,0.98 -0.045,2.265 0.223,3.197c0.43,1.495 4.796,0.922 5.941,0.822c-0.771,-1.319 0.25,-2.912 -0.443,-4.231c-0.066,-0.126 -0.166,-0.226 -0.292,-0.307zM235.811,221.00001c0.253,0.787 0.84,1.507 1.338,2.104c0.86,1.033 1.052,1.12 2.417,1.234c0.667,0.056 1.339,0.034 2.01,0.034c0.726,0 1.459,0.02 2.181,-0.008c-0.665,-0.861 -1.242,-1.586 -1.794,-2.549c-0.393,-0.687 -0.713,-1.675 -1.542,-1.91c-1.365,-0.387 -3.269,-0.214 -4.68,-0.142c-0.099,0.425 -0.057,0.839 0.07,1.237z" fill="#2a3d98" fill-rule="nonzero" stroke-width="1"/><path d="M234.45303,225.8672c0.289,0.063 0.63514,0.50261 0.71214,0.82461c1.039,4.302 0.99799,8.67781 -0.31601,12.92181c-1.022,3.299 -4.66431,5.10358 -7.95031,4.03058c-0.821,-0.268 -1.21732,-0.71876 -1.00332,-1.60376c0.727,-3.012 0.88482,-6.17664 0.92482,-9.26364c0.038,-2.883 -0.24839,-5.70961 -0.27339,-8.59361c0.108,0.022 0.21718,0.0445 0.32518,0.0665c2.512,0.519 5.06287,1.05951 7.58087,1.61751z" data-paper-data="{&quot;noHover&quot;:false,&quot;origItem&quot;:[&quot;Path&quot;,{&quot;applyMatrix&quot;:true,&quot;segments&quot;:[[[226.891,224.29601],[2.512,0.519],[-0.108,-0.022]],[[226.567,224.22901],[0.108,0.022],[0.025,2.884]],[[226.868,232.79201],[0.038,-2.883],[-0.04,3.087]],[[225.922,241.99801],[0.727,-3.012],[-0.214,0.885]],[[226.918,243.59801],[-0.821,-0.268],[3.286,1.073]],[[234.82,239.57301],[-1.022,3.299],[1.314,-4.244]],[[235.14,226.73501],[1.039,4.302],[-0.077,-0.322]],[[234.433,225.91301],[0.289,0.063],[-2.518,-0.558]]],&quot;closed&quot;:true,&quot;fillColor&quot;:[0.16471,0.23922,0.59608]}]}" fill="#dbdbdb" fill-rule="nonzero" stroke-width="0.5"/><path d="M279.70515,224.34963c0.649,4.15 0.20253,8.27601 -0.37147,12.33501c-0.278,1.962 -1.18373,4.05503 -2.39873,5.61703c-1.099,1.412 -3.1269,1.34268 -4.7049,0.88968c-2.336,-0.67 -4.35721,-2.41539 -4.49021,-4.92039c-0.099,-1.896 -0.56968,-3.74929 -0.66568,-5.64629c-0.053,-1.064 -0.06081,-2.10541 -0.15381,-3.17041c-0.138,-1.593 0.23326,-3.41959 -0.23674,-4.96359c-0.254,-0.837 -1.30548,-1.05519 -2.09648,-0.91319c-0.869,0.156 -0.99305,0.84994 -1.09505,1.63094c-0.303,2.319 0.22288,4.54634 0.24888,6.81034c0.03,2.722 0.76916,5.57583 -0.08984,8.28183c-0.684,2.156 -1.74629,4.1254 -4.12429,4.7084c-1.843,0.451 -3.86255,0.58992 -5.59555,-0.27108c-0.962,-0.478 -1.80193,-1.54537 -2.30993,-2.54037c-1.687,-3.305 -1.80839,-6.95103 -2.03239,-10.58103c-0.113,-1.85 0.6363,-3.64254 0.5583,-5.45854c-0.023,-0.559 -0.17009,-1.18907 -0.67709,-1.50907c-0.608,-0.382 -1.16721,0.01402 -1.80421,-0.03298c-2.495,-0.184 -4.03078,-4.62054 -4.59378,-6.58054c-0.775,-2.7 -0.7054,-5.57053 -0.3534,-8.33253c0.121,-0.953 0.32618,-1.97458 0.80118,-2.78058c0.337,-0.572 1.16676,-1.11901 1.82676,-1.18801c1.74,-0.18 3.51772,-0.03413 5.26972,-0.14013c1.425,-0.087 2.84032,-0.38351 4.26132,-0.54551c3.718,-0.422 8.34657,-0.16217 11.16957,-3.05917c0.386,-0.395 0.51215,-1.02332 1.11315,-0.92832c0.275,0.044 0.83301,0.64888 1.17601,0.77688c1.077,0.402 2.20213,0.46275 3.28213,0.88875c1.401,0.552 3.07185,0.57465 4.55885,0.63165c2.749,0.107 5.04993,-1.03807 7.23193,-2.37007c2.138,-1.305 4.03964,-2.99583 6.11964,-4.40483c0.815,-0.55 1.81244,-0.94868 2.77844,-1.11668c0.916,-0.16 1.45935,0.5834 1.89635,1.3984c0.56,1.041 0.36401,1.96233 -0.16399,2.88933c-1.986,3.492 -5.12961,5.8668 -8.59061,7.7018c-1.735,0.919 -3.48136,1.93117 -5.34736,2.46317c-3.448,0.981 -6.96123,1.30318 -10.50623,0.31418c-0.601,-0.168 -2.10991,-0.46518 -2.43691,0.29882c-0.399,0.929 0.79044,1.82948 1.53644,2.21148c1.037,0.53 2.44599,0.4277 3.57199,0.4857c1.949,0.1 3.92355,0.03933 6.27955,0.03933c0.377,3.748 0.59039,7.46559 1.15839,11.08059z" data-paper-data="{&quot;noHover&quot;:false,&quot;origItem&quot;:[&quot;Path&quot;,{&quot;applyMatrix&quot;:true,&quot;segments&quot;:[[[278.506,213.29801],[0.377,3.748],[-2.356,0]],[[272.244,213.27401],[1.949,0.1],[-1.126,-0.058]],[[268.69399,212.79401],[1.037,0.53],[-0.746,-0.382]],[[267.152,210.48301],[-0.399,0.929],[0.327,-0.764]],[[269.601,210.18401],[-0.601,-0.168],[3.545,0.989]],[[280.139,209.88601],[-3.448,0.981],[1.866,-0.532]],[[285.489,207.42601],[-1.735,0.919],[3.461,-1.835]],[[294.001,199.78601],[-1.986,3.492],[0.528,-0.927]],[[294.167,196.89901],[0.56,1.041],[-0.437,-0.815]],[[292.27299,195.50301],[0.916,-0.16],[-0.966,0.168]],[[289.496,196.62101],[0.815,-0.55],[-2.08,1.409]],[[283.37899,201.02801],[2.138,-1.305],[-2.182,1.332]],[[276.157,203.40401],[2.749,0.107],[-1.487,-0.057]],[[271.61,202.77601],[1.401,0.552],[-1.08,-0.426]],[[268.337,201.88801],[1.077,0.402],[-0.343,-0.128]],[[267.164,201.11101],[0.275,0.044],[-0.601,-0.095]],[[266.054,202.03901],[0.386,-0.395],[-2.823,2.897]],[[254.911,205.08601],[3.718,-0.422],[-1.421,0.162]],[[250.655,205.62601],[1.425,-0.087],[-1.752,0.106]],[[245.389,205.76101],[1.74,-0.18],[-0.66,0.069]],[[243.564,206.94601],[0.337,-0.572],[-0.475,0.806]],[[242.765,209.72201],[0.121,-0.953],[-0.352,2.762]],[[243.122,218.04001],[-0.775,-2.7],[0.563,1.96]],[[247.715,224.60601],[-2.495,-0.184],[0.637,0.047]],[[249.519,224.63801],[-0.608,-0.382],[0.507,0.32]],[[250.195,226.14301],[-0.023,-0.559],[0.078,1.816]],[[249.632,231.59101],[-0.113,-1.85],[0.224,3.63]],[[251.652,242.15801],[-1.687,-3.305],[0.508,0.995]],[[253.957,244.69501],[-0.962,-0.478],[1.733,0.861]],[[259.544,244.96201],[-1.843,0.451],[2.378,-0.583]],[[263.663,240.25201],[-0.684,2.156],[0.859,-2.706]],[[263.722,232.06501],[0.03,2.722],[-0.026,-2.264]],[[263.45599,225.24301],[-0.303,2.319],[0.102,-0.781]],[[264.626,223.54601],[-0.869,0.156],[0.791,-0.142]],[[266.704,224.44501],[-0.254,-0.837],[0.47,1.544]],[[266.929,229.40501],[-0.138,-1.593],[0.093,1.065]],[[267.08,232.57501],[-0.053,-1.064],[0.096,1.897]],[[267.74199,238.22101],[-0.099,-1.896],[0.133,2.505]],[[272.222,243.14201],[-2.336,-0.67],[1.578,0.453]],[[276.917,242.25501],[-1.099,1.412],[1.215,-1.562]],[[279.306,236.64301],[-0.278,1.962],[0.574,-4.059]],[[279.658,224.33301],[0.649,4.15],[-0.568,-3.615]]],&quot;closed&quot;:true,&quot;fillColor&quot;:[0.16471,0.23922,0.59608]}]}" fill="#dbdbdb" fill-rule="nonzero" stroke-width="0.5"/><path d="M246.9297,165.54131c2.536,-0.236 5.11706,-0.47479 7.66006,-0.58679c2.289,-0.101 3.01322,0.31477 3.40022,1.64077c0.192,0.657 0.41186,1.33734 0.44386,2.01134c0.072,1.557 0.04108,3.14462 0.06008,4.70462c0.029,2.453 -0.15099,4.91152 -0.83099,7.29352c-0.549,1.921 -2.80269,2.65217 -4.14969,1.13817c-2.121,-2.388 -4.25953,-4.87248 -6.14853,-7.44348c-1.461,-1.989 -2.61038,-4.23916 -3.87938,-6.36516c-0.277,-0.462 -0.45035,-0.98699 -0.81735,-1.80399c1.58,-0.219 2.92371,-0.464 4.26171,-0.589z" data-paper-data="{&quot;noHover&quot;:false,&quot;origItem&quot;:[&quot;Path&quot;,{&quot;applyMatrix&quot;:true,&quot;segments&quot;:[[[242.704,166.16501],[1.58,-0.219],[0.367,0.817]],[[243.524,167.96601],[-0.277,-0.462],[1.269,2.126]],[[247.414,174.29101],[-1.461,-1.989],[1.889,2.571]],[[253.496,181.69601],[-2.121,-2.388],[1.347,1.514]],[[257.627,180.57001],[-0.549,1.921],[0.68,-2.382]],[[258.44399,173.31401],[0.029,2.453],[-0.019,-1.56]],[[258.392,168.63401],[0.072,1.557],[-0.032,-0.674]],[[257.954,166.63001],[0.192,0.657],[-0.387,-1.326]],[[254.569,165],[2.289,-0.101],[-2.543,0.112]],[[246.95,165.58701],[2.536,-0.236],[-1.338,0.125]]],&quot;closed&quot;:true,&quot;fillColor&quot;:[0.16471,0.23922,0.59608]}]}" fill="#dbdbdb" fill-rule="nonzero" stroke-width="0.5"/><path d="M225.87602,221.65593c-0.82,-0.224 -1.50785,-0.88437 -2.27585,-1.32537c-0.66,-0.379 -1.23419,-0.45111 -1.65419,0.31889c-0.47,0.86 0.14575,1.31473 0.70175,1.74173c0.421,0.322 1.00647,0.56241 1.35747,0.72241c0.096,0.844 0.23026,1.53127 0.23026,2.21327c0,1.62 -0.02973,3.24238 -0.04973,4.86238c-0.017,1.419 0.07796,2.83644 -0.11504,4.23244c-0.098,0.705 -0.07699,1.4071 -0.07699,2.1201c0,0.892 -0.07207,1.75909 -0.15307,2.64109c-0.088,0.945 -0.35441,1.86312 -0.83041,2.68712c-0.359,0.622 -0.83117,1.59398 -1.42217,2.00298c-1.014,0.701 -3.23286,1.44685 -4.44886,0.96085c-3.089,-1.235 -5.51942,-3.32756 -6.81942,-6.37956c-0.609,-1.429 -0.67201,-3.1318 -0.81101,-4.7228c-0.154,-1.772 -0.10794,-3.64028 -0.10494,-5.43328c0.005,-2.138 0.13541,-4.29253 0.20541,-6.42953c0.027,-0.854 -0.05195,-1.7048 -0.05595,-2.5438c-0.003,-0.828 0.24097,-1.73362 0.33997,-2.55862c0.202,-1.681 0.38175,-3.3842 0.65075,-5.0572c0.539,-3.343 1.54647,-6.66361 3.71347,-9.33061c0.567,-0.698 1.0051,-1.49797 1.5931,-2.18797c1.675,-1.965 4.05122,-3.17344 6.54222,-3.77544c2.061,-0.498 1.50236,1.62226 2.30736,2.97626c0.433,0.728 1.20919,1.50281 1.85919,2.04981c0.697,0.589 1.55761,1.05688 2.36161,1.39388c0.425,0.178 0.76029,0.47232 1.20929,0.58932c0.45,0.119 0.90228,0.2316 1.35628,0.3756c0.261,0.084 3.05568,0.88728 3.00768,1.03628c-2.034,6.294 -2.86345,12.73498 1.11855,18.82198c-0.047,0.122 -0.09234,0.24541 -0.13834,0.36741c-3.17,-0.769 -6.45138,-1.51061 -9.59838,-2.36961z" data-paper-data="{&quot;noHover&quot;:false,&quot;origItem&quot;:[&quot;Path&quot;,{&quot;applyMatrix&quot;:true,&quot;segments&quot;:[[[235.426,224.01301],[-3.17,-0.769],[0.046,-0.122]],[[235.564,223.64701],[-0.047,0.122],[-3.982,-6.087]],[[234.464,204.87601],[-2.034,6.294],[0.048,-0.149]],[[231.463,203.84401],[0.261,0.084],[-0.454,-0.144]],[[230.11,203.47001],[0.45,0.119],[-0.449,-0.117]],[[228.904,202.88201],[0.425,0.178],[-0.804,-0.337]],[[226.549,201.49001],[0.697,0.589],[-0.65,-0.547]],[[224.695,199.44101],[0.433,0.728],[-0.805,-1.354]],[[222.393,196.46501],[2.061,-0.498],[-2.491,0.602]],[[215.866,200.23801],[1.675,-1.965],[-0.588,0.69]],[[214.278,202.42401],[0.567,-0.698],[-2.167,2.667]],[[210.584,211.73901],[0.539,-3.343],[-0.269,1.673]],[[209.941,216.78101],[0.202,-1.681],[-0.099,0.825]],[[209.603,219.33001],[-0.003,-0.828],[0.004,0.839]],[[209.659,221.86401],[0.027,-0.854],[-0.07,2.137]],[[209.447,228.27301],[0.005,-2.138],[-0.003,1.793]],[[209.544,233.69601],[-0.154,-1.772],[0.139,1.591]],[[210.348,238.41301],[-0.609,-1.429],[1.3,3.052]],[[217.15,244.78501],[-3.089,-1.235],[1.216,0.486]],[[221.59,243.82301],[-1.014,0.701],[0.591,-0.409]],[[223.009,241.82001],[-0.359,0.622],[0.476,-0.824]],[[223.837,239.13301],[-0.088,0.945],[0.081,-0.882]],[[223.989,236.49201],[0,0.892],[0,-0.713]],[[224.065,234.37201],[-0.098,0.705],[0.193,-1.396]],[[224.177,230.14001],[-0.017,1.419],[0.02,-1.62]],[[224.218,225.28001],[0,1.62],[0,-0.682]],[[223.979,223.07101],[0.096,0.844],[-0.351,-0.16]],[[222.652,222.44101],[0.421,0.322],[-0.556,-0.427]],[[221.896,220.64801],[-0.47,0.86],[0.42,-0.77]],[[223.648,220.31601],[-0.66,-0.379],[0.768,0.441]],[[225.924,221.67001],[-0.82,-0.224],[3.147,0.859]]],&quot;closed&quot;:true,&quot;fillColor&quot;:[0.16471,0.23922,0.59608]}]}" fill="#dbdbdb" fill-rule="nonzero" stroke-width="0.5"/><path d="M209.70614,165.55811c0.284,0.012 0.55723,0.34758 1.11523,0.71658c-1.864,2.964 -3.75243,5.87102 -5.48443,8.83802c-1.051,1.801 -1.73679,3.89829 -2.83679,5.66329c-0.884,1.417 -2.11901,2.65908 -3.34901,3.81108c-0.825,0.773 -2.80671,0.18849 -3.31671,-0.8685c-0.415,-0.862 -0.91782,-1.79577 -0.96482,-2.71277c-0.153,-2.967 -0.75864,-5.95675 -0.37364,-8.96275c0.174,-1.352 -0.12386,-2.77365 -0.12087,-4.15565c0.001,-0.923 0.17173,-1.85249 0.27573,-2.89348c5.067,0.183 10.09231,0.3532 15.05531,0.5642z" data-paper-data="{&quot;noHover&quot;:false,&quot;origItem&quot;:[&quot;Path&quot;,{&quot;applyMatrix&quot;:true,&quot;segments&quot;:[[[389.36399,330.06601],[10.134,0.366],[-0.208,2.082]],[[388.82599,335.84001],[0.002,-1.846],[-0.006,2.764]],[[389.08599,344.12001],[0.348,-2.704],[-0.77,6.012]],[[389.81799,361.95001],[-0.306,-5.934],[0.094,1.834]],[[391.72999,367.35801],[-0.83,-1.724],[1.02,2.114]],[[398.33599,369.08001],[-1.65,1.546],[2.46,-2.304]],[[405.00199,361.45201],[-1.768,2.834],[2.2,-3.53]],[[410.57399,350.22001],[-2.102,3.602],[3.464,-5.934]],[[421.57399,332.62201],[-3.728,5.928],[-1.116,-0.738]],[[419.35199,331.19601],[0.568,0.024],[-9.926,-0.422]]],&quot;closed&quot;:true,&quot;fillColor&quot;:[0.16471,0.23922,0.59608]}]}" fill="#dbdbdb" fill-rule="nonzero" stroke-width="0.5"/><path d="M242.34776,187.78272c-1.112,-0.015 -2.23185,0.17127 -3.34385,0.21726c-1.612,0.066 -3.20489,0.17429 -4.80789,0.33129c-2.712,0.265 -5.68596,1.54557 -7.77996,3.26657c-0.643,0.528 -0.93568,1.07514 -1.21568,1.80714c-0.247,0.644 -0.28877,0.55874 -0.97777,0.63574c-1.249,0.139 -2.42184,0.68022 -3.62784,1.00322c-1.301,0.349 -2.3711,1.05274 -3.5291,1.69174c-0.852,0.47 -1.80661,1.04744 -2.42461,1.81343c-0.625,0.774 -1.1377,0.77515 -2.0747,0.56915c-0.615,-0.134 -1.26024,-0.39559 -1.81824,-0.68359c-2.238,-1.15 -3.93206,-4.04982 -5.03606,-6.21282c-1.505,-2.948 -1.56684,-5.58522 -1.47184,-8.80522c0.054,-1.851 1.55353,-3.70918 2.49053,-5.25618c1.455,-2.403 3.01979,-4.76781 4.41879,-7.20181c0.852,-1.484 1.442,-3.1045 2.209,-4.6285c0.782,-1.554 2.75978,-2.10166 4.33778,-2.26666c1.073,-0.111 2.10476,-0.20278 3.18276,-0.23978c1.685,-0.059 3.36989,-0.19568 5.05689,-0.19568c2.019,-0.001 4.00329,0.17406 5.97629,0.62306c1.73,0.393 3.451,0.78338 5.158,1.27838c1.2,0.349 2.0856,1.0677 3.1466,1.6927c1.876,1.105 2.51307,3.56591 3.55407,5.34091c0.552,0.941 1.0759,1.91038 1.6479,2.84138c0.358,0.582 0.92211,1.02433 1.24611,1.63033c0.329,0.613 0.30276,1.39084 0.30276,2.08684c0,1.585 -0.26004,3.17112 -0.57504,4.71912c-0.149,0.738 -0.44491,1.44131 -0.6639,2.15831c-0.128,0.418 -0.19883,0.91819 -0.43883,1.29119c-0.507,0.786 -1.40099,0.66298 -2.22999,0.55698c-0.246,-0.032 -0.48818,-0.06152 -0.71218,-0.06452z" data-paper-data="{&quot;noHover&quot;:false,&quot;origItem&quot;:[&quot;Path&quot;,{&quot;applyMatrix&quot;:true,&quot;segments&quot;:[[[486.02599,375.66001],[-0.492,-0.064],[1.658,0.212]],[[490.48399,374.55201],[-1.014,1.572],[0.48,-0.746]],[[491.35999,371.97601],[-0.256,0.836],[0.438,-1.434]],[[492.68599,367.67001],[-0.298,1.476],[0.63,-3.096]],[[493.83599,358.25401],[0,3.17],[0,-1.392]],[[493.23199,354.09001],[0.658,1.226],[-0.648,-1.212]],[[490.74199,350.83801],[0.716,1.164],[-1.144,-1.862]],[[487.45199,345.17001],[1.104,1.882],[-2.082,-3.55]],[[480.36199,334.51401],[3.752,2.21],[-2.122,-1.25]],[[474.08199,331.14001],[2.4,0.698],[-3.414,-0.99]],[[463.78999,328.59601],[3.46,0.786],[-3.946,-0.898]],[[451.86999,327.35601],[4.038,-0.002],[-3.374,0]],[[441.78399,327.74401],[3.37,-0.118],[-2.156,0.074]],[[435.43399,328.21801],[2.146,-0.222],[-3.156,0.33]],[[426.77999,332.73801],[1.564,-3.108],[-1.534,3.048]],[[422.37999,341.97601],[1.704,-2.968],[-2.798,4.868]],[[413.55999,356.33801],[2.91,-4.806],[-1.874,3.094]],[[408.57999,366.82401],[0.108,-3.702],[-0.19,6.44]],[[411.51199,384.39601],[-3.01,-5.896],[2.208,4.326]],[[421.56199,396.79401],[-4.476,-2.3],[1.116,0.576]],[[425.19199,398.15601],[-1.23,-0.268],[1.874,0.412]],[[429.33599,397.01401],[-1.25,1.548],[1.236,-1.532]],[[434.17999,393.38401],[-1.704,0.94],[2.316,-1.278]],[[441.22399,389.99401],[-2.602,0.698],[2.412,-0.646]],[[448.45599,387.98201],[-2.498,0.278],[1.378,-0.154]],[[450.40399,386.71001],[-0.494,1.288],[0.56,-1.464]],[[452.82399,383.09601],[-1.286,1.056],[4.188,-3.442]],[[468.31399,376.60001],[-5.424,0.53],[3.206,-0.314]],[[477.91799,375.95601],[-3.224,0.132],[2.224,-0.092]],[[484.60199,375.53001],[-2.224,-0.03],[0.448,0.006]]],&quot;closed&quot;:true,&quot;fillColor&quot;:[0.16471,0.23922,0.59608]}]}" fill="#dbdbdb" fill-rule="nonzero" stroke-width="0.5"/><path d="M267.458,216.02401c0.092,0.344 0.116,0.687 0.059,0.933c-0.134,0.571 -0.492,1.069 -1.095,1.189c-0.965,0.194 -1.889,-1.127 -1.81,-2.006c0.062,-0.689 0.735,-1.2 1.344,-1.408c0.751,-0.255 1.297,0.524 1.502,1.292z" fill="#2a3d98" fill-rule="evenodd" stroke-width="1"/></g></g></g></svg>